<svg width="188" height="42" fill="none" xmlns="http://www.w3.org/2000/svg"><path d="M3.226 34.503L.515 30.666h1.958l1.841 2.745 1.856-2.745h1.944l-2.718 3.837 2.857 4.008H6.309l-1.995-2.937-1.987 2.937H.383l2.843-4.008zM8.443 30.666h1.87l1.644 4.447c.249.634.415 1.23.497 1.788h.059c.044-.26.124-.575.241-.944.117-.373.736-2.137 1.856-5.29h1.856l-3.456 8.886C12.38 41.184 11.334 42 9.868 42c-.38 0-.75-.04-1.11-.12v-1.32c.257.057.552.085.883.085.828 0 1.41-.465 1.747-1.397l.3-.737-3.245-7.845zM25.446 41.284h-1.6V38.51h-5.539v2.773h-1.585V37.22h.657c.575-.8 1.03-1.764 1.367-2.894.34-1.135.543-2.355.606-3.66h4.91v6.554h1.184v4.064zm-2.872-4.064v-5.277h-1.739a14 14 0 01-.584 2.88c-.292.945-.65 1.744-1.074 2.397h3.398zM34.112 34.574c0 1.282-.338 2.282-1.016 3-.677.719-1.62 1.078-2.827 1.078-.755 0-1.423-.165-2.002-.496a3.316 3.316 0 01-1.338-1.426c-.311-.62-.467-1.338-.467-2.156 0-1.272.336-2.265 1.008-2.979.672-.714 1.62-1.07 2.843-1.07 1.169 0 2.094.366 2.776 1.099.682.728 1.023 1.711 1.023 2.95zm-5.882 0c0 1.811.69 2.717 2.068 2.717 1.364 0 2.046-.906 2.046-2.717 0-1.792-.687-2.688-2.06-2.688-.722 0-1.245.232-1.572.695-.321.464-.482 1.128-.482 1.993zM40.075 34.475v-3.809h1.6v3.809l3.113-3.809H46.6l-3.179 3.795 3.464 4.05h-1.893l-3.317-3.98v3.98h-1.6v-3.98l-3.31 3.98h-1.886l3.457-4.05-3.172-3.795h1.813l3.098 3.809zM51.663 38.652c-1.256 0-2.24-.354-2.952-1.063-.706-.715-1.06-1.696-1.06-2.944 0-1.281.33-2.288.987-3.021.658-.733 1.562-1.1 2.711-1.1 1.067 0 1.91.315 2.528.944.62.629.928 1.494.928 2.596v.9H49.42c.025.762.236 1.348.636 1.76.4.406.962.61 1.688.61.477 0 .92-.043 1.33-.129.414-.09.857-.236 1.33-.44v1.355c-.42.194-.843.331-1.272.412-.428.08-.918.12-1.469.12zm-.314-6.865c-.545 0-.984.168-1.315.503-.326.336-.521.825-.585 1.469h3.669c-.01-.648-.171-1.138-.483-1.469-.311-.335-.74-.503-1.286-.503zM60.015 38.652c-1.222 0-2.153-.345-2.791-1.035-.633-.695-.95-1.69-.95-2.986 0-1.32.331-2.334.994-3.043.667-.709 1.63-1.064 2.886-1.064.853 0 1.62.154 2.302.461l-.519 1.34c-.726-.273-1.325-.41-1.797-.41-1.399 0-2.098.9-2.098 2.702 0 .88.173 1.541.52 1.986.35.44.861.66 1.534.66.765 0 1.488-.185 2.17-.554v1.454c-.307.175-.636.3-.987.376a6.013 6.013 0 01-1.264.113zM70.238 30.666v1.305h-2.63v6.54h-1.725v-6.54h-2.63v-1.305h6.985zM78.809 32.673c0 .927-.558 1.487-1.674 1.681v.057c.624.071 1.101.262 1.433.575.33.312.496.716.496 1.212 0 .743-.292 1.315-.876 1.717-.58.397-1.425.596-2.536.596h-3.858v-7.845h3.844c2.114 0 3.17.67 3.17 2.007zM77.304 36.1c0-.378-.151-.645-.454-.801-.301-.161-.755-.242-1.359-.242h-1.98v2.22h2.024c1.18 0 1.769-.392 1.769-1.177zm-.212-3.284c0-.312-.127-.536-.38-.673-.249-.142-.621-.213-1.118-.213H73.51v1.886h1.827c.575 0 1.01-.07 1.308-.212.297-.147.446-.41.446-.788zM84.37 38.652c-1.258 0-2.242-.354-2.953-1.063-.706-.715-1.06-1.696-1.06-2.944 0-1.281.33-2.288.987-3.021.658-.733 1.562-1.1 2.711-1.1 1.067 0 1.91.315 2.528.944.619.629.928 1.494.928 2.596v.9h-5.385c.024.762.236 1.348.636 1.76.4.406.962.61 1.688.61.477 0 .92-.043 1.33-.129.414-.09.857-.236 1.33-.44v1.355c-.42.194-.843.331-1.272.412-.429.08-.918.12-1.469.12zm-.315-6.865c-.545 0-.984.168-1.315.503-.326.336-.521.825-.585 1.469h3.668c-.01-.648-.17-1.138-.482-1.469-.312-.335-.74-.503-1.286-.503zM91.18 30.666v3.15h3.806v-3.15h1.718v7.845h-1.718v-3.384H91.18v3.383h-1.717v-7.844h1.717zM100.883 30.666v3.15h3.807v-3.15h1.717v7.845h-1.717v-3.384h-3.807v3.383h-1.717v-7.844h1.717zM113.926 38.51l-.343-1.092h-.059c-.39.478-.782.804-1.176.98-.395.17-.902.254-1.52.254-.794 0-1.415-.208-1.863-.624-.444-.416-.665-1.005-.665-1.766 0-.808.309-1.418.928-1.83.618-.411 1.561-.636 2.827-.673l1.396-.043v-.418c0-.502-.122-.875-.365-1.121-.239-.25-.612-.376-1.118-.376-.414 0-.811.06-1.191.177a9.11 9.11 0 00-1.096.419l-.556-1.192c.439-.222.919-.39 1.44-.503a6.682 6.682 0 011.476-.178c1.028 0 1.802.218 2.323.653.526.435.789 1.118.789 2.05v5.284h-1.227zm-2.558-1.134c.624 0 1.123-.168 1.498-.504.38-.34.57-.816.57-1.425v-.681l-1.037.042c-.809.029-1.398.161-1.769.397-.365.232-.548.59-.548 1.071 0 .35.108.622.322.816.214.19.536.284.964.284zM118.376 38.51h-1.922l2.251-3.212c-.546-.152-.975-.421-1.286-.809-.312-.392-.468-.877-.468-1.454 0-.742.273-1.321.818-1.737.546-.421 1.291-.632 2.236-.632h3.683v7.845h-1.724v-3.022h-1.63l-1.958 3.022zm.248-5.46c0 .401.156.704.468.907.317.199.74.298 1.271.298h1.601V31.93h-1.871c-.468 0-.831.097-1.089.29-.253.194-.38.471-.38.83zM135.255 30.666v1.305h-3.507v6.54h-1.718v-7.845h5.225zM141.868 38.51l-.344-1.092h-.058c-.39.478-.782.804-1.177.98-.394.17-.901.254-1.519.254-.794 0-1.416-.208-1.864-.624-.443-.416-.665-1.005-.665-1.766 0-.808.31-1.418.928-1.83.619-.411 1.562-.636 2.828-.673l1.396-.043v-.418c0-.502-.122-.875-.366-1.121-.238-.25-.611-.376-1.118-.376-.414 0-.811.06-1.191.177-.38.119-.745.258-1.096.419l-.555-1.192a5.98 5.98 0 011.439-.503 6.696 6.696 0 011.476-.178c1.028 0 1.803.218 2.324.653.526.435.789 1.118.789 2.05v5.284h-1.227zm-2.558-1.134c.624 0 1.123-.168 1.498-.504.38-.34.57-.816.57-1.425v-.681l-1.037.042c-.809.029-1.399.161-1.769.397-.365.232-.548.59-.548 1.071 0 .35.107.622.322.816.214.19.536.284.964.284zM152.134 38.51h-1.732v-6.539h-2.228c-.137 1.684-.322 2.998-.556 3.944-.229.945-.531 1.636-.906 2.07-.37.436-.852.653-1.447.653-.375 0-.689-.052-.942-.156v-1.305c.18.066.36.1.541.1.496 0 .886-.542 1.169-1.625.287-1.087.511-2.75.672-4.986h5.429v7.845zM158.126 38.652c-1.257 0-2.241-.354-2.952-1.063-.707-.715-1.06-1.696-1.06-2.944 0-1.281.329-2.288.987-3.021.657-.733 1.561-1.1 2.71-1.1 1.067 0 1.91.315 2.529.944.618.629.928 1.494.928 2.596v.9h-5.386c.025.762.237 1.348.636 1.76.4.406.962.61 1.688.61.477 0 .921-.043 1.33-.129.414-.09.857-.236 1.33-.44v1.355c-.419.194-.843.331-1.272.412-.428.08-.918.12-1.468.12zm-.315-6.865c-.545 0-.984.168-1.315.503-.326.336-.521.825-.584 1.469h3.668c-.01-.648-.171-1.138-.483-1.469-.311-.335-.74-.503-1.286-.503zM167.318 38.652c-1.023 0-1.817-.357-2.382-1.07h-.103c.069.661.103 1.063.103 1.205V42h-1.717V30.666h1.388c.039.147.119.497.241 1.05h.088c.536-.794 1.339-1.192 2.411-1.192 1.008 0 1.793.355 2.353 1.064.565.71.847 1.705.847 2.986 0 1.282-.287 2.282-.862 3-.57.719-1.359 1.078-2.367 1.078zm-.417-6.766c-.682 0-1.181.194-1.498.582-.311.387-.467 1.007-.467 1.858v.248c0 .955.156 1.648.467 2.078.312.426.821.639 1.528.639.594 0 1.052-.237 1.373-.71.322-.472.482-1.146.482-2.021 0-.88-.16-1.544-.482-1.993-.316-.454-.784-.68-1.403-.68zM176.072 38.652c-1.257 0-2.241-.354-2.953-1.063-.706-.715-1.059-1.696-1.059-2.944 0-1.281.329-2.288.986-3.021.658-.733 1.562-1.1 2.711-1.1 1.067 0 1.91.315 2.528.944.619.629.928 1.494.928 2.596v.9h-5.385c.025.762.237 1.348.636 1.76.399.406.962.61 1.688.61.477 0 .921-.043 1.33-.129.414-.09.857-.236 1.33-.44v1.355c-.419.194-.843.331-1.272.412-.428.08-.918.12-1.468.12zm-.315-6.865c-.545 0-.984.168-1.315.503-.326.336-.521.825-.585 1.469h3.669c-.01-.648-.171-1.138-.483-1.469-.311-.335-.74-.503-1.286-.503zM181.99 38.51h-1.922l2.251-3.212c-.546-.152-.974-.421-1.286-.809-.312-.392-.468-.877-.468-1.454 0-.742.273-1.321.819-1.737.545-.421 1.291-.632 2.236-.632h3.682v7.845h-1.724v-3.022h-1.63l-1.958 3.022zm.249-5.46c0 .401.155.704.467.907.317.199.741.298 1.272.298h1.6V31.93h-1.871c-.467 0-.83.097-1.088.29-.254.194-.38.471-.38.83zM.2 22.734h12.645c4.987 0 7.54-2.192 7.54-6.365v-.065c0-3.102-1.623-4.986-4.75-5.521v-.293c2.62-.487 3.99-2.143 3.99-4.839V5.57c0-3.67-2.384-5.57-7.05-5.57H.2v22.734zm4.987-13.43V3.216h5.9c2.384 0 3.567 1.007 3.567 2.988v.065c0 2.014-1.183 3.037-3.567 3.037h-5.9zm0 10.199V12.26h6.052c2.62 0 3.922 1.202 3.922 3.556v.066c0 2.403-1.301 3.62-3.922 3.62H5.187zM25.083 0v22.734h4.92V0h-4.92zM40.296 23.156c3.972 0 6.863-1.705 7.928-4.595l.338.081c-.642 3.15.034 4.514 3.922 4.514.49 0 .98-.048 1.387-.113l.574-2.81-.845-.016c-.93-.016-1.2-.227-1.2-1.38v-7.81c0-3.866-2.671-5.717-8.368-5.717-6.052 0-9.112 2.29-8.859 6.252l4.852.39c-.203-2.615 1.184-3.8 3.905-3.8 2.435 0 3.584.86 3.584 2.825v.958l-4.8.845c-4.802.86-7.98 2.322-7.98 5.894v.05c0 2.825 1.994 4.432 5.562 4.432zm1.96-3.15c-1.656 0-2.552-.568-2.552-1.737v-.033c0-1.672 1.572-2.354 4.683-2.94l3.127-.584v.796c0 2.614-2.451 4.498-5.257 4.498zM58.585 22.734h4.92V14.81c0-3.833 1.876-6.203 4.987-6.203 2.316 0 3.465 1.152 3.465 3.36v10.767h4.92V10.831c0-3.572-2.18-5.456-6.238-5.456-3.686 0-6.204 1.559-7.692 4.807l-.338-.146c.676-1.933.913-3.086.913-4.352h-4.937v17.05zM91.515 23.14c5.799 0 9.044-2.24 9.535-6.576l-4.97-.536c-.204 2.728-1.759 4.108-4.548 4.108-3.128 0-4.75-1.884-4.75-5.602v-.796c0-3.637 1.64-5.472 4.7-5.472 2.822 0 4.293 1.51 4.513 4.53l4.902-.536c-.388-4.595-3.516-6.982-9.399-6.982-6.39 0-9.754 3.004-9.754 8.752v.211c0 5.846 3.33 8.9 9.77 8.9zM105.95 22.734h4.92V14.81c0-3.833 1.859-6.187 4.987-6.187 2.316 0 3.465 1.136 3.465 3.345v10.766h4.92V10.831c0-3.572-2.198-5.456-6.238-5.456-3.72 0-6.222 1.559-7.692 4.79l-.355-.13c.659-1.818.896-3.166.913-4.774V0h-4.92v22.734zM134.451 23.156c3.972 0 6.863-1.705 7.928-4.595l.338.081c-.642 3.15.034 4.514 3.922 4.514.491 0 .981-.048 1.387-.113l.574-2.81-.845-.016c-.93-.016-1.2-.227-1.2-1.38v-7.81c0-3.866-2.671-5.717-8.368-5.717-6.052 0-9.112 2.29-8.859 6.252l4.852.39c-.203-2.615 1.184-3.8 3.905-3.8 2.435 0 3.584.86 3.584 2.825v.958l-4.801.845c-4.801.86-7.979 2.322-7.979 5.894v.05c0 2.825 1.995 4.432 5.562 4.432zm1.961-3.15c-1.657 0-2.553-.568-2.553-1.737v-.033c0-1.672 1.572-2.354 4.683-2.94l3.127-.584v.796c0 2.614-2.451 4.498-5.257 4.498zM152.74 22.734h4.92v-7.129c0-4.449 1.437-6.09 5.19-6.349l2.417-.179-.575-3.93c-3.972.293-5.815 1.495-7.641 5.035l-.321-.146c.794-2.274.98-3.183.947-4.352h-4.937v17.05zM176.135 23.043c3.652 0 6.036-1.624 7.236-4.563l.355.113c-.575 1.787-.879 3.2-.896 4.141h4.97V0h-4.919v4.628c0 1.786.253 3.232.862 5.196l-.338.13c-1.201-2.923-3.601-4.611-7.27-4.611-5.071 0-7.742 2.971-7.742 8.655v.406c0 5.667 2.671 8.639 7.742 8.639zm1.86-2.923c-3.043 0-4.632-1.868-4.632-5.554v-.747c0-3.702 1.589-5.586 4.632-5.586 3.178 0 4.886 1.981 4.886 5.667v.585c0 3.67-1.708 5.635-4.886 5.635z" fill="#fff"/></svg>