<svg width="35" height="36" fill="none" xmlns="http://www.w3.org/2000/svg"><path d="M17.5.5C7.835.5 0 8.335 0 18s7.835 17.5 17.5 17.5S35 27.665 35 18 27.165.5 17.5.5zm8.877 19.393c.816.796 1.679 1.546 2.41 2.425.325.39.631.791.864 1.243.332.645.032 1.352-.545 1.39H25.52c-.925.077-1.662-.297-2.284-.93-.495-.504-.956-1.043-1.433-1.565a3.351 3.351 0 00-.646-.574c-.488-.318-.913-.22-1.193.29-.285.52-.35 1.095-.378 1.673-.039.846-.294 1.067-1.142 1.106-1.813.085-3.532-.19-5.13-1.104-1.41-.806-2.502-1.943-3.453-3.231-1.852-2.51-3.27-5.266-4.545-8.101-.286-.638-.077-.98.628-.993a99.95 99.95 0 013.51-.001c.476.007.791.28.974.729.633 1.556 1.408 3.036 2.38 4.409.258.365.523.73.899.988.415.285.732.19.927-.273.126-.294.18-.61.207-.925.093-1.082.104-2.163-.057-3.24-.1-.675-.48-1.11-1.151-1.238-.343-.065-.292-.191-.126-.387.289-.338.56-.547 1.1-.547h4.051c.639.124.782.411.869 1.054l.003 4.502c-.007.248.125.986.572 1.149.358.118.594-.17.809-.396.971-1.03 1.663-2.247 2.283-3.507.273-.555.51-1.13.739-1.705.17-.426.435-.636.916-.628l3.9.004c.115 0 .232.001.346.021.657.112.837.395.634 1.037-.32 1.007-.942 1.847-1.55 2.688-.652.9-1.347 1.77-1.992 2.675-.593.827-.546 1.243.19 1.962z" fill="#757575"/></svg>