<svg width="35" height="36" fill="none" xmlns="http://www.w3.org/2000/svg"><g clip-path="url(#clip0)" fill="#757575"><path d="M14.15 18a3.35 3.35 0 106.7 0 3.35 3.35 0 00-6.7 0z"/><path d="M9.667 12.073c.16-.436.417-.83.751-1.155.324-.334.72-.59 1.156-.752.354-.137.886-.3 1.865-.345 1.06-.049 1.378-.06 4.061-.06s3.001.011 4.06.06c.98.044 1.513.208 1.867.345.436.161.831.418 1.155.752.334.324.59.719.752 1.155.137.355.301.887.346 1.867.048 1.06.058 1.377.058 4.06s-.01 3.001-.058 4.06c-.045.98-.209 1.513-.346 1.867a3.116 3.116 0 01-.752 1.155 3.11 3.11 0 01-1.155.752c-.354.138-.886.301-1.866.346-1.06.048-1.377.058-4.06.058-2.684 0-3.002-.01-4.061-.058-.98-.045-1.512-.208-1.866-.346a3.328 3.328 0 01-1.907-1.907c-.138-.354-.302-.886-.347-1.866-.048-1.06-.058-1.378-.058-4.06 0-2.684.01-3.002.058-4.062.045-.98.209-1.511.347-1.866zM17.5 23.16a5.16 5.16 0 100-10.32 5.16 5.16 0 000 10.32zm-5.364-9.318a1.206 1.206 0 100-2.412 1.206 1.206 0 000 2.412z"/><path d="M17.5.5C27.164.5 35 8.336 35 18c0 9.663-7.836 17.5-17.5 17.5C7.837 35.5 0 27.663 0 18 0 8.336 7.837.5 17.5.5zM7.512 22.143c.048 1.07.219 1.8.467 2.44a5.138 5.138 0 002.939 2.938c.639.248 1.37.418 2.439.467 1.072.05 1.414.06 4.143.06 2.73 0 3.071-.01 4.143-.06 1.07-.049 1.8-.218 2.44-.467a4.923 4.923 0 001.78-1.159 4.924 4.924 0 001.158-1.78c.248-.639.418-1.37.467-2.439.05-1.072.06-1.414.06-4.143s-.01-3.071-.06-4.143c-.048-1.07-.218-1.8-.466-2.44a4.923 4.923 0 00-1.16-1.779 4.922 4.922 0 00-1.78-1.16c-.639-.248-1.37-.417-2.439-.466-1.072-.05-1.414-.06-4.143-.06s-3.071.01-4.143.06c-1.07.049-1.8.218-2.44.467a4.926 4.926 0 00-1.78 1.159 4.924 4.924 0 00-1.158 1.78c-.249.639-.419 1.37-.467 2.439-.05 1.072-.06 1.414-.06 4.143s.01 3.071.06 4.143z"/></g><defs><clipPath id="clip0"><path fill="#fff" transform="matrix(-1 0 0 1 35 .5)" d="M0 0h35v35H0z"/></clipPath></defs></svg>